# xmcd
#
# Track frame offsets:
#	150
#	15797
#	31422
#	47270
#	62415
#	77253
#	91951
#	111679
#	126683
#	145819
#	165319
#
# Disc length: 2416 seconds
#
# Revision: 0
# Processed by: cddbd v1.5.2PL0 Copyright (c) Steve Scherf et al.
# Submitted via: dBpowerAMP V4.0
#
DISCID=7f096e0b
DTITLE=Renegade Rail - It's Not Us
DYEAR=2005
DGENRE=Country
TTITLE0=No Place Like Home
TTITLE1=If This Aint Texas
TTITLE2=My Bad Side
TTITLE3=Mile Of Friends
TTITLE4=Are You Sure Hank Done It This Way
TTITLE5=Its Not Us
TTITLE6=Heroes
TTITLE7=Moonshine
TTITLE8=One More Chance
TTITLE9=Outlawz
TTITLE10=Silver And Gold
EXTD=
EXTT0=
EXTT1=
EXTT2=
EXTT3=
EXTT4=
EXTT5=
EXTT6=
EXTT7=
EXTT8=
EXTT9=
EXTT10=
PLAYORDER=
